<svg width="135" height="135" viewBox="0 0 135 135" fill="none" xmlns="http://www.w3.org/2000/svg">
<mask id="path-1-inside-1_33_162" fill="white">
<path fill-rule="evenodd" clip-rule="evenodd" d="M71.5305 35.2666C71.3133 35.3791 71.0669 35.5592 70.9831 35.6666C70.8963 35.7777 70.8293 35.7189 70.8275 35.5302C70.8248 35.2428 70.7345 35.2269 70.1501 35.4115C69.7792 35.5285 69.3286 35.7435 69.1483 35.8896C68.9682 36.0355 68.6296 36.1548 68.3958 36.1548C68.162 36.1548 67.8546 36.2866 67.7125 36.4478C67.5704 36.6089 67.311 36.7407 67.1362 36.7407C66.471 36.7407 64.7674 38.1615 62.8044 40.3538C61.7288 41.5549 61.2649 42.15 59.6837 44.3574C59.4911 44.626 59.0389 45.1972 58.6785 45.6269C58.3182 46.0566 57.8715 46.6854 57.6862 47.0243C57.501 47.3633 57.2292 47.7588 57.0823 47.9031C56.722 48.2578 56.1071 49.1536 55.494 50.2165C54.9727 51.1207 53.9771 53.5366 54.1258 53.5366C54.1717 53.5366 54.0719 53.9031 53.9041 54.351C53.7362 54.799 53.545 55.4362 53.4792 55.7669C53.3155 56.5905 53.2888 56.6795 53.0093 57.3227C52.8745 57.6328 52.7409 58.0283 52.712 58.2015C52.6832 58.3749 52.6031 58.6046 52.5338 58.712C52.4116 58.9013 51.6127 61.7997 51.4237 62.7399C51.3723 62.9952 51.2824 63.4237 51.2241 63.6922C51.1656 63.9607 51.0669 64.6199 51.0046 65.1569C50.8198 66.7539 50.752 67.1957 50.3163 69.6489C50.0873 70.9378 49.8489 72.344 49.7865 72.7737C49.6273 73.8681 49.4755 74.6456 49.3097 75.2149C49.2317 75.4835 49.1547 75.8789 49.1388 76.0938C49.1228 76.3086 49.0535 76.6162 48.9848 76.7773C48.7695 77.2826 48.3583 80.3927 48.1328 83.2222C47.9619 85.3694 47.3621 86.6546 45.963 87.8725C45.1226 88.6041 42.4503 90.2531 42.1053 90.2531C42.0387 90.2531 41.6062 90.5109 41.144 90.8259C40.682 91.1411 40.0293 91.4555 39.6936 91.5251C39.358 91.5944 39.0833 91.7321 39.0833 91.8309C39.0833 91.9299 38.9121 92.0108 38.703 92.0108C38.4937 92.0108 38.2576 92.0719 38.1784 92.1467C38.0989 92.2213 37.9201 92.3057 37.7807 92.3342C37.6413 92.3627 37.195 92.4642 36.7886 92.5601C36.3824 92.6558 35.1688 92.7072 34.0917 92.674C32.3998 92.6223 31.9488 92.5307 30.7767 92.0016L29.4197 91.3889L31.3991 89.501C32.4876 88.4624 33.9363 86.8226 34.6182 85.8568C35.3001 84.8913 36.4058 83.4478 37.0753 82.6492C37.7448 81.8508 38.5273 80.7083 38.8142 80.1103C39.7372 78.1876 41.1305 74.4466 41.2767 73.4986C41.3547 72.9926 41.4545 72.4026 41.4983 72.1878C41.5421 71.9729 41.6348 70.6547 41.7041 69.2583C41.8833 65.6559 41.54 64.7287 39.8218 64.1724C39.358 64.0224 39.0053 64.0107 38.7648 64.1373C38.4966 64.2787 38.4443 64.266 38.5613 64.0881C38.6823 63.9035 38.6207 63.8978 38.292 64.0633C38.0576 64.1814 37.6701 64.2781 37.4307 64.2781C37.1915 64.2781 36.9421 64.4093 36.8768 64.5699C36.8112 64.7304 36.6913 64.823 36.61 64.7757C36.348 64.6232 34.1284 66.4024 33.7612 67.0594L33.4054 67.6959L33.2709 67.11C32.9282 65.6169 31.9916 64.681 30.4719 64.3136C29.317 64.0344 28.8892 64.1013 27.2582 64.8167C26.2985 65.2378 24.6222 66.8717 23.7853 68.2023C23.2126 69.1128 22.1641 71.5812 20.9091 74.9739C20.4897 76.1076 20.3484 77.3183 20.383 79.4844C20.4148 81.469 20.4193 81.5022 20.9231 83.5152C21.5782 86.1326 21.689 86.4535 22.4418 87.9095C22.9858 88.9617 23.6217 89.7728 24.7 90.7901C25.5255 91.5688 26.2987 92.2061 26.4184 92.2061C26.7835 92.2061 26.6632 92.5178 26.089 93.0584C25.7881 93.3415 25.6247 93.5788 25.7259 93.5855C25.8269 93.5923 25.7012 93.6769 25.4465 93.7734C25.1228 93.8958 25.0239 94.0491 25.1187 94.2813C25.2037 94.4899 25.1724 94.5663 25.0349 94.4862C24.7865 94.3417 24.287 94.8124 24.488 95.0016C24.56 95.0694 24.3596 95.2174 24.0426 95.3309C23.7256 95.4443 23.5287 95.5957 23.6049 95.6676C23.8696 95.9166 24.4133 95.8887 24.7087 95.6105C24.872 95.4566 24.9291 95.3278 24.8353 95.324C24.7417 95.3201 24.8984 95.1914 25.1836 95.0379C25.4689 94.8844 25.6197 94.7557 25.5187 94.7518C25.4176 94.7481 25.5819 94.5622 25.8838 94.3387C26.1854 94.1153 26.3703 93.838 26.2945 93.7226C26.2157 93.6025 26.2537 93.5691 26.3833 93.6447C26.508 93.7171 26.7771 93.5679 26.9814 93.313L27.3528 92.8494L28.2909 93.3351C28.8069 93.6023 29.3239 93.8905 29.44 93.9761C29.556 94.0614 30.3497 94.352 31.204 94.6221C32.5204 95.0381 33.0577 95.1032 34.7273 95.0492C35.8108 95.0143 36.9228 94.9336 37.1983 94.8704C38.4153 94.5903 39.8656 94.0603 40.7349 93.5777C41.2529 93.2902 41.7614 93.058 41.8649 93.0619C41.9684 93.0656 42.3418 92.8724 42.6947 92.6328C43.0476 92.3932 44.1297 91.6993 45.0996 91.0909C46.7812 90.0361 47.676 89.2951 48.3295 88.4166C48.6066 88.0442 48.6264 88.0733 48.6264 88.8551C48.6264 91.8934 52.4836 94.4727 56.7172 94.2653C57.4589 94.229 58.0657 94.1831 58.0657 94.1632C58.0657 94.1433 58.3458 94.089 58.6881 94.0423C59.4212 93.9427 62.3758 92.9795 62.526 92.791C62.5831 92.7195 63.1432 92.424 63.7708 92.1344C64.3983 91.845 65.3744 91.354 65.9398 91.0434L66.9677 90.4788L67.5355 90.8595C68.2828 91.3604 69.613 91.8994 69.9551 91.8401C70.1047 91.8141 70.5248 91.8823 70.8887 91.9916C71.2527 92.101 72.0602 92.2424 72.6832 92.3059C73.3062 92.3695 73.9362 92.5156 74.0835 92.6307C74.2306 92.7457 74.3511 92.782 74.3511 92.7113C74.3511 92.6408 74.5146 92.6652 74.7142 92.7658C75.5201 93.1716 79.7423 93.5829 80.679 93.347C81.3014 93.1902 82.5781 93.0115 84.1016 92.8683C85.0624 92.7781 87.5355 92.3588 88.6657 92.0947C88.8369 92.0547 89.3059 91.9453 89.708 91.8516C90.1098 91.7579 90.6467 91.5766 90.9009 91.4485C91.1548 91.3206 91.3627 91.2581 91.3627 91.3098C91.3627 91.3614 91.8996 91.1184 92.5556 90.7696C93.2115 90.421 93.9248 90.0722 94.1403 89.9947C94.3559 89.9173 95.3361 89.323 96.3186 88.6744C97.3012 88.0257 99.1085 86.8958 100.335 86.1635C104.964 83.3994 106.777 81.7917 109.835 77.7394C110.611 76.7109 111.526 75.6592 111.869 75.4024C112.212 75.1454 112.447 74.8663 112.392 74.7821C112.337 74.698 112.396 74.629 112.523 74.629C112.651 74.629 112.696 74.539 112.624 74.4288C112.552 74.3189 112.569 74.2449 112.664 74.2646C112.978 74.3306 113.56 74.0045 113.443 73.8273C113.38 73.7312 113.484 73.6525 113.674 73.6525C113.888 73.6525 113.977 73.5465 113.906 73.3738C113.782 73.0684 114.242 72.601 114.462 72.8086C114.675 73.0092 115.619 72.0813 115.499 71.7888C115.333 71.3792 114.774 71.6892 114.917 72.112C115.009 72.3874 114.96 72.4493 114.716 72.3614C114.538 72.2971 114.456 72.1485 114.533 72.0313C114.929 71.4275 112.954 72.9563 110.967 74.7905C109.326 76.3061 109.17 76.4811 108.713 77.313C108.289 78.0854 104.453 81.5833 103.425 82.1358C103.237 82.2366 102.914 82.5221 102.706 82.7705C102.498 83.0189 102.209 83.2222 102.064 83.2222C101.919 83.2222 101.652 83.3761 101.471 83.564C101.29 83.7519 100.599 84.1695 99.9346 84.4917C99.2708 84.8139 98.6807 85.1227 98.6237 85.1778C98.208 85.5797 96.2637 86.8257 96.1137 86.7865C96.0108 86.7595 95.9267 86.8216 95.9267 86.9244C95.9267 87.2093 93.247 88.6172 92.1925 88.8862C91.679 89.0172 91.0722 89.1955 90.844 89.2824C90.6158 89.3695 90.0557 89.497 89.5993 89.566C89.1429 89.6347 88.5361 89.7263 88.2508 89.7695C87.9655 89.8127 86.9853 89.9748 86.0725 90.13C85.1597 90.2853 83.806 90.4734 83.0644 90.5482C82.3227 90.623 81.5292 90.7169 81.301 90.7569C79.4911 91.0753 75.6944 90.6495 73.3138 89.8615C73.0286 89.767 72.4218 89.6431 71.9654 89.5863C69.402 89.2664 69.2628 89.1033 70.7434 88.1544C72.9381 86.7478 75.3361 84.0816 76.5846 81.6598C77.2636 80.3425 78.325 77.4585 78.8073 75.6194C79.1955 74.1396 79.0936 71.9444 78.5302 69.6489C77.7928 66.6453 76.9329 65.5339 74.5667 64.5255C72.4689 63.6317 72.1822 63.5277 70.8511 63.1795L69.5294 62.8338L70.0343 62.4329C70.3121 62.2126 70.8567 61.8124 71.2445 61.5439C72.4222 60.7281 75.8309 57.4426 75.4996 57.4426C75.4488 57.4426 75.6415 57.2221 75.9276 56.9528C76.2139 56.6832 76.3909 56.3756 76.3209 56.2692C76.251 56.1626 76.2859 56.0755 76.3983 56.0755C76.606 56.0755 77.6704 54.1244 77.6704 53.744C77.6704 53.6299 77.7528 53.5366 77.8532 53.5366C78.0499 53.5366 78.5231 52.0427 78.6206 51.1148C78.6534 50.8033 78.7876 50.486 78.9191 50.4094C79.0505 50.333 79.1612 50.1924 79.1652 50.0969C79.1691 50.0016 79.2579 49.7118 79.3625 49.453C79.4668 49.1941 79.528 48.8425 79.4984 48.6718C79.4685 48.5009 79.5174 48.2513 79.6069 48.117C79.6963 47.9828 79.7272 47.8728 79.6753 47.8728C79.6237 47.8728 79.6641 47.5434 79.7652 47.1405C80.0272 46.0976 80.0203 42.3902 79.756 42.1414C79.6031 41.9974 79.5376 42.0158 79.5376 42.2027C79.5376 42.4587 79.2388 42.3142 79.2148 42.0464C79.1552 41.3859 78.7947 40.4846 78.4762 40.1997C78.2613 40.0075 78.0883 39.7439 78.0916 39.6138C78.0951 39.4837 78.191 39.5275 78.3047 39.7109C78.4308 39.9145 78.6436 39.9968 78.8509 39.922C79.0965 39.8331 79.1436 39.8708 79.021 40.0579C78.9102 40.2262 78.9314 40.2698 79.0816 40.1823C79.3359 40.0343 79.187 39.4749 78.893 39.4749C78.7911 39.4749 78.7017 39.5849 78.6947 39.7191C78.6874 39.8534 78.5949 39.7599 78.4889 39.5112C78.3831 39.2626 78.2032 39.1134 78.0895 39.1796C77.9657 39.2517 77.9375 39.1654 78.0192 38.9648C78.1113 38.7388 78.0775 38.6752 77.9155 38.7695C77.7536 38.8636 77.7198 38.8 77.8117 38.5742C77.9142 38.323 77.8746 38.2787 77.6539 38.3974C77.4157 38.5254 77.4088 38.5055 77.6178 38.2934C77.8325 38.0756 77.9281 38.0957 78.1816 38.4113C78.3594 38.6326 78.4899 38.6877 78.4936 38.5431C78.5017 38.2373 76.5462 36.3501 76.2214 36.3501C76.0921 36.3501 76.0529 36.4517 76.1342 36.5757C76.2267 36.7165 76.1911 36.7479 76.0394 36.6597C75.9058 36.5819 75.8477 36.4405 75.9104 36.3452C76.0699 36.1021 75.2467 35.6441 74.1437 35.3621C72.9132 35.0478 72.0158 35.0149 71.5305 35.2666ZM70.9281 36.2394C70.5858 36.3513 70.259 36.4878 70.202 36.5429C70.0812 36.6595 69.5889 36.787 69.2165 36.7981C69.074 36.8024 68.9572 36.911 68.9572 37.0397C68.9572 37.1682 68.5604 37.5272 68.0755 37.8371C67.5907 38.1471 67.0797 38.4887 66.9401 38.5961C66.8007 38.7035 66.3298 39.0519 65.8937 39.3702C65.1363 39.9235 64.8195 40.2844 62.5468 43.1856C61.3531 44.7096 57.7869 49.7075 57.3149 50.5184C56.8332 51.3459 55.9955 53.9393 55.364 56.5581C55.3129 56.7698 55.0816 57.5193 54.8501 58.2238C54.3377 59.7823 54.3536 59.7208 53.7138 62.618C53.4292 63.907 53.1357 65.5077 53.0618 66.1751L52.9272 67.3885L53.9406 66.9168C55.5115 66.1854 56.8929 65.6452 57.1921 65.6452C57.3417 65.6452 57.5898 65.5354 57.7435 65.4011C57.9682 65.2046 57.9925 65.2075 57.8669 65.4155C57.7377 65.63 57.7943 65.63 58.1995 65.4155C58.4682 65.2733 58.7567 65.0691 58.8405 64.9616C58.9244 64.8542 58.9943 64.8345 58.9961 64.9179C58.9978 65.0011 59.2783 64.9335 59.6195 64.7673C59.9606 64.6013 60.2639 64.473 60.2938 64.482C60.3523 64.5 60.8599 64.3531 61.4369 64.151C61.9375 63.9756 62.0953 63.9316 63.0447 63.702C65.0686 63.2123 65.7124 62.8915 67.2667 61.5972C67.683 61.2505 68.0927 60.965 68.177 60.9625C68.2614 60.9599 68.8253 60.5404 69.4302 60.0303C70.7661 58.9034 72.2591 57.7592 72.5097 57.6701C72.6112 57.634 72.6454 57.5305 72.5861 57.44C72.5265 57.3494 72.6427 57.2238 72.8439 57.1609C73.4943 56.9576 75.7156 53.5174 76.0743 52.1581C76.1469 51.8833 76.3664 51.3121 76.562 50.8887C76.7576 50.4653 76.9024 50.0588 76.8838 49.9856C76.8653 49.9124 76.9908 49.5349 77.163 49.147C77.3352 48.7589 77.4211 48.3576 77.3537 48.2549C77.2862 48.1521 77.3066 48.068 77.3989 48.0678C77.4912 48.0676 77.5914 47.7818 77.6217 47.433C77.6983 46.5532 77.7792 46.1429 77.8989 46.0302C78.1013 45.8398 77.8043 41.3975 77.5468 40.7661C77.4763 40.593 77.3298 40.4514 77.2211 40.4514C77.1124 40.4514 77.0829 40.361 77.1555 40.2503C77.3196 40.0005 76.4321 38.5683 75.7071 37.9125C75.4102 37.644 75.0096 37.2704 74.8169 37.0825C74.6241 36.8946 74.3005 36.7407 74.0976 36.7407C73.8947 36.7407 73.7288 36.6587 73.7288 36.5585C73.7288 36.1302 71.9004 35.922 70.9281 36.2394ZM76.2245 37.2475C76.2212 37.3651 76.3894 37.6073 76.5985 37.7854C76.9132 38.0535 76.979 38.0602 76.979 37.8242C76.979 37.6674 76.9068 37.5811 76.8188 37.6323C76.7307 37.6834 76.5624 37.5698 76.4448 37.3795C76.3272 37.1893 76.228 37.1299 76.2245 37.2475ZM77.3246 37.8063C77.3246 37.9627 77.4041 38.0445 77.501 37.9881C77.5978 37.9317 77.6236 37.8037 77.5578 37.7038C77.3902 37.4483 77.3246 37.477 77.3246 37.8063ZM78.604 39.0843C78.6745 39.1917 78.7733 39.2796 78.8237 39.2796C78.8741 39.2796 78.9152 39.1917 78.9152 39.0843C78.9152 38.9769 78.8162 38.889 78.6955 38.889C78.5748 38.889 78.5335 38.9769 78.604 39.0843ZM79.3301 41.3418C79.3301 41.5092 79.4249 41.591 79.5409 41.5236C79.6569 41.4561 79.6982 41.3192 79.6324 41.2192C79.4546 40.9483 79.3301 40.9987 79.3301 41.3418ZM79.3264 42.9903C79.31 43.2589 79.2778 43.7151 79.255 44.0039C79.2229 44.4137 79.2729 44.4832 79.482 44.3199C79.6731 44.1705 79.6873 44.0391 79.5315 43.8624C79.3774 43.6876 79.3801 43.593 79.5401 43.5428C79.6979 43.4934 79.7046 43.3235 79.5618 42.9868L79.3564 42.5021L79.3264 42.9903ZM79.3301 44.9433C79.3301 45.0508 79.4291 45.1386 79.5498 45.1386C79.6705 45.1386 79.7118 45.0508 79.6413 44.9433C79.5708 44.8359 79.472 44.748 79.4216 44.748C79.3712 44.748 79.3301 44.8359 79.3301 44.9433ZM79.0967 47.1893C79.0824 47.243 79.0577 47.3528 79.0417 47.4334C79.0258 47.5141 78.9303 47.7117 78.8297 47.8728C78.6816 48.1103 78.6994 48.1199 78.9241 47.9236C79.1861 47.6947 79.3919 47.0916 79.2081 47.0916C79.161 47.0916 79.111 47.1356 79.0967 47.1893ZM65.919 65.3319C65.3779 65.7048 62.7335 67.0133 62.7335 66.9084C62.7335 66.867 62.1501 67.0799 61.4369 67.381C60.7238 67.6822 60.0469 67.9527 59.9328 67.9822C59.8187 68.0115 59.492 68.1267 59.2067 68.238C58.9215 68.3493 58.5947 68.4524 58.4806 68.4671C58.3665 68.4819 57.713 68.6604 57.0284 68.8637C56.3438 69.0672 55.6903 69.2503 55.5762 69.2704C55.4621 69.2907 54.914 69.4526 54.3582 69.6301C53.8024 69.8078 53.1724 69.9008 52.9579 69.8367C52.7436 69.7727 52.561 69.792 52.5521 69.8799C52.5434 69.9676 52.4954 70.2152 52.4452 70.4301C52.3952 70.6449 52.3434 70.9964 52.3297 71.2113C52.3162 71.4261 52.2303 71.9095 52.1388 72.2854C51.9241 73.1686 51.7204 74.2082 51.6415 74.8243C51.6073 75.0929 51.4783 75.6559 51.3553 76.0754C51.2322 76.4951 51.1733 76.9023 51.2248 76.9804C51.276 77.0586 51.1897 77.5236 51.0331 78.0138C50.8764 78.504 50.7939 78.9481 50.8499 79.0006C50.936 79.0819 50.8181 80.388 50.3997 83.988L50.3221 84.6563L50.9254 84.0486C51.2573 83.7142 51.8094 83.2847 52.1521 83.0941C52.495 82.9035 52.7755 82.6785 52.7755 82.5942C52.7755 82.51 52.9467 82.441 53.1558 82.441C53.3651 82.441 53.6062 82.3752 53.6918 82.2946C53.7773 82.2139 53.9097 82.142 53.9856 82.1344C54.0618 82.127 54.5441 82.0038 55.0575 81.8604C56.8002 81.3741 60.8328 81.7348 61.819 82.4653C61.9437 82.5574 62.107 82.5752 62.1821 82.5045C62.2572 82.4338 62.3186 82.4836 62.3186 82.6153C62.3186 82.7469 62.4013 82.8065 62.5024 82.7477C62.714 82.6246 64.9543 84.3167 66.1061 85.4694C67.9674 87.3323 68.0203 87.3743 68.0907 87.0482C68.1276 86.8773 68.2911 86.7377 68.4537 86.7377C68.6166 86.7377 68.7498 86.6498 68.7498 86.5424C68.7498 86.4349 68.8666 86.3467 69.0091 86.3461C69.2587 86.3453 70.2764 85.5754 71.5224 84.445C72.6599 83.413 73.8777 81.5503 74.6385 79.6783C75.0594 78.6421 75.4374 77.631 75.4782 77.4316C75.5189 77.232 75.6712 76.6736 75.8166 76.1906C76.2938 74.6046 76.3321 74.1904 76.1423 72.676C75.7654 69.6655 74.76 67.149 73.797 66.8043C73.5014 66.6985 73.0151 66.4516 72.7162 66.2555C71.2384 65.286 66.8511 64.69 65.919 65.3319ZM36.75 65.988C36.0942 66.2829 35.5575 66.634 35.5571 66.7682C35.5567 66.9025 35.3642 67.0123 35.1293 67.0123C34.8945 67.0123 34.7522 67.0885 34.8132 67.1814C34.9659 67.414 34.2161 68.0253 34.0024 67.8427C33.9076 67.7619 33.8985 67.8074 33.9819 67.9435C34.0653 68.0798 33.952 68.4753 33.7305 68.8223C33.5087 69.1696 33.2676 69.9604 33.195 70.5799C33.0264 72.0143 32.6376 73.0733 32.0081 73.8131C31.4926 74.4189 30.785 74.7485 30.785 74.3829C30.785 74.2677 30.7236 74.2312 30.6485 74.3019C30.4217 74.5154 29.9551 74.0242 29.9551 73.5721C29.9551 73.3393 30.2819 72.5588 30.6812 71.8378C31.3352 70.6572 31.4073 70.3711 31.4073 68.9587C31.4073 66.4428 30.7366 65.48 29.1535 65.7239C28.7386 65.7878 28.2826 65.8548 28.1399 65.8727C27.9972 65.8909 27.9268 65.9493 27.9835 66.0026C28.0401 66.0559 27.8233 66.2502 27.5015 66.4344C26.8839 66.7879 25.0548 68.9528 24.7444 69.6977C24.6436 69.9393 24.4523 70.3787 24.3193 70.6742C24.1862 70.9697 24.065 71.2552 24.0498 71.3089C23.937 71.7081 23.6407 72.478 23.4111 72.969C22.2041 75.5487 22.0234 79.8322 22.9866 83.0269C23.5791 84.9919 23.6071 85.0663 24.3785 86.7269C24.9089 87.869 27.5146 90.5636 27.8818 90.3499C27.9953 90.2839 28.088 90.3232 28.088 90.4368C28.088 90.8003 28.8834 90.6585 29.1952 90.2394C29.4143 89.9449 29.5257 89.905 29.6054 90.0929C29.6859 90.282 29.7193 90.2708 29.7313 90.0505C29.7402 89.8855 30.1516 89.3478 30.6454 88.8559C31.1391 88.3637 32.0847 87.1367 32.7469 86.1289C33.4091 85.121 34.6425 83.3152 35.4876 82.1163C36.3328 80.9171 37.2641 79.3791 37.557 78.6985C37.8502 78.0177 38.2304 77.1533 38.4024 76.7773C39.1876 75.0595 39.6806 72.2991 39.7953 68.9737C39.8959 66.0641 39.6891 65.4493 38.6111 65.4509C38.2433 65.4515 37.4058 65.6932 36.75 65.988ZM116.88 70.4926C116.203 70.7812 115.635 71.2199 115.635 71.4536C115.635 71.8458 116.143 71.7399 116.796 71.2115C117.127 70.9431 117.305 70.722 117.191 70.7203C117.077 70.7185 117.124 70.6318 117.295 70.5277C117.646 70.3142 117.356 70.2896 116.88 70.4926ZM116.094 71.231C115.947 71.3812 115.918 71.5042 116.03 71.5042C116.245 71.5042 116.557 71.1328 116.434 71.0226C116.394 70.9869 116.241 71.0806 116.094 71.231ZM55.949 84.2218C55.4694 84.3036 54.898 84.4607 54.6796 84.5708C54.4611 84.6808 54.2346 84.7259 54.1761 84.671C54.1178 84.6161 53.5068 85.0805 52.8182 85.7031C51.9673 86.473 51.499 87.0722 51.3557 87.5755C50.8903 89.2086 51.6969 90.7796 53.4873 91.727C54.3437 92.1803 54.7972 92.2815 56.0878 92.3076C56.9473 92.325 58.0885 92.2309 58.6237 92.0983C59.1588 91.9656 59.649 91.9063 59.7129 91.9664C59.7768 92.0266 59.8291 91.9733 59.8291 91.8481C59.8291 91.7227 59.9504 91.6202 60.099 91.6202C60.4929 91.6202 61.4852 91.1583 61.4871 90.9739C61.4879 90.887 61.5715 90.8642 61.6728 90.9229C61.7738 90.9817 61.9711 90.9001 62.1111 90.7413C62.2512 90.5825 62.4484 90.5009 62.5495 90.5597C62.6507 90.6185 62.7335 90.5685 62.7335 90.4484C62.7335 90.3283 62.8275 90.2847 62.9424 90.3515C63.0573 90.4185 63.2071 90.3363 63.2754 90.1689C63.3436 90.0015 63.4828 89.9132 63.5851 89.9728C63.6872 90.0322 63.7708 89.9877 63.7708 89.874C63.7708 89.7603 63.8876 89.6652 64.0301 89.6629C64.1728 89.6605 64.5108 89.4982 64.7815 89.3023C65.2668 88.9508 65.2682 88.9399 64.8852 88.4903C63.6019 86.9841 61.2479 84.9526 60.3799 84.6024C59.3038 84.1681 57.2823 83.9945 55.949 84.2218ZM23.1748 96.1172C23.2258 96.2812 21.59 97.7797 21.4168 97.7276C21.3021 97.693 21.3091 97.9014 21.4409 98.4557C21.4535 98.5094 21.5975 98.3336 21.7606 98.0651C21.9236 97.7965 22.0603 97.6536 22.0645 97.7471C22.0684 97.8409 22.2107 97.809 22.3807 97.6762C22.5506 97.5434 22.6294 97.3434 22.5559 97.2315C22.4767 97.1108 22.5236 97.087 22.6711 97.173C22.8078 97.2524 23.0601 97.2079 23.2316 97.0737C23.4818 96.8784 23.4903 96.7982 23.2744 96.6695C23.0698 96.5472 23.0862 96.508 23.343 96.5056C23.5287 96.504 23.7814 96.3884 23.9044 96.2488C24.0774 96.0525 24.0158 95.9949 23.6325 95.9949C23.3599 95.9949 23.1538 96.05 23.1748 96.1172ZM20.1957 98.4233C19.7941 98.7293 19.7741 98.7988 20.0584 98.9016C20.2853 98.9836 20.3563 98.9363 20.2814 98.7529C20.205 98.5656 20.2922 98.5139 20.5685 98.5818C20.8351 98.6475 20.9654 98.5787 20.9654 98.3723C20.9654 97.9715 20.7712 97.9844 20.1957 98.4233ZM18.8242 99.342C18.4649 99.5982 18.4748 99.6154 18.9864 99.6212C19.6376 99.6287 20.2015 99.1392 19.5916 99.0959C19.3802 99.081 19.035 99.1916 18.8242 99.342ZM17.711 100.12C17.5666 100.284 17.5085 100.475 17.5817 100.544C17.6552 100.613 17.7151 100.561 17.7151 100.43C17.7151 100.298 17.785 100.23 17.8707 100.279C17.9564 100.328 18.1466 100.245 18.2937 100.095C18.5132 99.8718 18.5084 99.8228 18.2674 99.8228C18.1058 99.8228 17.8554 99.9568 17.711 100.12Z"/>
</mask>
<path fill-rule="evenodd" clip-rule="evenodd" d="M71.5305 35.2666C71.3133 35.3791 71.0669 35.5592 70.9831 35.6666C70.8963 35.7777 70.8293 35.7189 70.8275 35.5302C70.8248 35.2428 70.7345 35.2269 70.1501 35.4115C69.7792 35.5285 69.3286 35.7435 69.1483 35.8896C68.9682 36.0355 68.6296 36.1548 68.3958 36.1548C68.162 36.1548 67.8546 36.2866 67.7125 36.4478C67.5704 36.6089 67.311 36.7407 67.1362 36.7407C66.471 36.7407 64.7674 38.1615 62.8044 40.3538C61.7288 41.5549 61.2649 42.15 59.6837 44.3574C59.4911 44.626 59.0389 45.1972 58.6785 45.6269C58.3182 46.0566 57.8715 46.6854 57.6862 47.0243C57.501 47.3633 57.2292 47.7588 57.0823 47.9031C56.722 48.2578 56.1071 49.1536 55.494 50.2165C54.9727 51.1207 53.9771 53.5366 54.1258 53.5366C54.1717 53.5366 54.0719 53.9031 53.9041 54.351C53.7362 54.799 53.545 55.4362 53.4792 55.7669C53.3155 56.5905 53.2888 56.6795 53.0093 57.3227C52.8745 57.6328 52.7409 58.0283 52.712 58.2015C52.6832 58.3749 52.6031 58.6046 52.5338 58.712C52.4116 58.9013 51.6127 61.7997 51.4237 62.7399C51.3723 62.9952 51.2824 63.4237 51.2241 63.6922C51.1656 63.9607 51.0669 64.6199 51.0046 65.1569C50.8198 66.7539 50.752 67.1957 50.3163 69.6489C50.0873 70.9378 49.8489 72.344 49.7865 72.7737C49.6273 73.8681 49.4755 74.6456 49.3097 75.2149C49.2317 75.4835 49.1547 75.8789 49.1388 76.0938C49.1228 76.3086 49.0535 76.6162 48.9848 76.7773C48.7695 77.2826 48.3583 80.3927 48.1328 83.2222C47.9619 85.3694 47.3621 86.6546 45.963 87.8725C45.1226 88.6041 42.4503 90.2531 42.1053 90.2531C42.0387 90.2531 41.6062 90.5109 41.144 90.8259C40.682 91.1411 40.0293 91.4555 39.6936 91.5251C39.358 91.5944 39.0833 91.7321 39.0833 91.8309C39.0833 91.9299 38.9121 92.0108 38.703 92.0108C38.4937 92.0108 38.2576 92.0719 38.1784 92.1467C38.0989 92.2213 37.9201 92.3057 37.7807 92.3342C37.6413 92.3627 37.195 92.4642 36.7886 92.5601C36.3824 92.6558 35.1688 92.7072 34.0917 92.674C32.3998 92.6223 31.9488 92.5307 30.7767 92.0016L29.4197 91.3889L31.3991 89.501C32.4876 88.4624 33.9363 86.8226 34.6182 85.8568C35.3001 84.8913 36.4058 83.4478 37.0753 82.6492C37.7448 81.8508 38.5273 80.7083 38.8142 80.1103C39.7372 78.1876 41.1305 74.4466 41.2767 73.4986C41.3547 72.9926 41.4545 72.4026 41.4983 72.1878C41.5421 71.9729 41.6348 70.6547 41.7041 69.2583C41.8833 65.6559 41.54 64.7287 39.8218 64.1724C39.358 64.0224 39.0053 64.0107 38.7648 64.1373C38.4966 64.2787 38.4443 64.266 38.5613 64.0881C38.6823 63.9035 38.6207 63.8978 38.292 64.0633C38.0576 64.1814 37.6701 64.2781 37.4307 64.2781C37.1915 64.2781 36.9421 64.4093 36.8768 64.5699C36.8112 64.7304 36.6913 64.823 36.61 64.7757C36.348 64.6232 34.1284 66.4024 33.7612 67.0594L33.4054 67.6959L33.2709 67.11C32.9282 65.6169 31.9916 64.681 30.4719 64.3136C29.317 64.0344 28.8892 64.1013 27.2582 64.8167C26.2985 65.2378 24.6222 66.8717 23.7853 68.2023C23.2126 69.1128 22.1641 71.5812 20.9091 74.9739C20.4897 76.1076 20.3484 77.3183 20.383 79.4844C20.4148 81.469 20.4193 81.5022 20.9231 83.5152C21.5782 86.1326 21.689 86.4535 22.4418 87.9095C22.9858 88.9617 23.6217 89.7728 24.7 90.7901C25.5255 91.5688 26.2987 92.2061 26.4184 92.2061C26.7835 92.2061 26.6632 92.5178 26.089 93.0584C25.7881 93.3415 25.6247 93.5788 25.7259 93.5855C25.8269 93.5923 25.7012 93.6769 25.4465 93.7734C25.1228 93.8958 25.0239 94.0491 25.1187 94.2813C25.2037 94.4899 25.1724 94.5663 25.0349 94.4862C24.7865 94.3417 24.287 94.8124 24.488 95.0016C24.56 95.0694 24.3596 95.2174 24.0426 95.3309C23.7256 95.4443 23.5287 95.5957 23.6049 95.6676C23.8696 95.9166 24.4133 95.8887 24.7087 95.6105C24.872 95.4566 24.9291 95.3278 24.8353 95.324C24.7417 95.3201 24.8984 95.1914 25.1836 95.0379C25.4689 94.8844 25.6197 94.7557 25.5187 94.7518C25.4176 94.7481 25.5819 94.5622 25.8838 94.3387C26.1854 94.1153 26.3703 93.838 26.2945 93.7226C26.2157 93.6025 26.2537 93.5691 26.3833 93.6447C26.508 93.7171 26.7771 93.5679 26.9814 93.313L27.3528 92.8494L28.2909 93.3351C28.8069 93.6023 29.3239 93.8905 29.44 93.9761C29.556 94.0614 30.3497 94.352 31.204 94.6221C32.5204 95.0381 33.0577 95.1032 34.7273 95.0492C35.8108 95.0143 36.9228 94.9336 37.1983 94.8704C38.4153 94.5903 39.8656 94.0603 40.7349 93.5777C41.2529 93.2902 41.7614 93.058 41.8649 93.0619C41.9684 93.0656 42.3418 92.8724 42.6947 92.6328C43.0476 92.3932 44.1297 91.6993 45.0996 91.0909C46.7812 90.0361 47.676 89.2951 48.3295 88.4166C48.6066 88.0442 48.6264 88.0733 48.6264 88.8551C48.6264 91.8934 52.4836 94.4727 56.7172 94.2653C57.4589 94.229 58.0657 94.1831 58.0657 94.1632C58.0657 94.1433 58.3458 94.089 58.6881 94.0423C59.4212 93.9427 62.3758 92.9795 62.526 92.791C62.5831 92.7195 63.1432 92.424 63.7708 92.1344C64.3983 91.845 65.3744 91.354 65.9398 91.0434L66.9677 90.4788L67.5355 90.8595C68.2828 91.3604 69.613 91.8994 69.9551 91.8401C70.1047 91.8141 70.5248 91.8823 70.8887 91.9916C71.2527 92.101 72.0602 92.2424 72.6832 92.3059C73.3062 92.3695 73.9362 92.5156 74.0835 92.6307C74.2306 92.7457 74.3511 92.782 74.3511 92.7113C74.3511 92.6408 74.5146 92.6652 74.7142 92.7658C75.5201 93.1716 79.7423 93.5829 80.679 93.347C81.3014 93.1902 82.5781 93.0115 84.1016 92.8683C85.0624 92.7781 87.5355 92.3588 88.6657 92.0947C88.8369 92.0547 89.3059 91.9453 89.708 91.8516C90.1098 91.7579 90.6467 91.5766 90.9009 91.4485C91.1548 91.3206 91.3627 91.2581 91.3627 91.3098C91.3627 91.3614 91.8996 91.1184 92.5556 90.7696C93.2115 90.421 93.9248 90.0722 94.1403 89.9947C94.3559 89.9173 95.3361 89.323 96.3186 88.6744C97.3012 88.0257 99.1085 86.8958 100.335 86.1635C104.964 83.3994 106.777 81.7917 109.835 77.7394C110.611 76.7109 111.526 75.6592 111.869 75.4024C112.212 75.1454 112.447 74.8663 112.392 74.7821C112.337 74.698 112.396 74.629 112.523 74.629C112.651 74.629 112.696 74.539 112.624 74.4288C112.552 74.3189 112.569 74.2449 112.664 74.2646C112.978 74.3306 113.56 74.0045 113.443 73.8273C113.38 73.7312 113.484 73.6525 113.674 73.6525C113.888 73.6525 113.977 73.5465 113.906 73.3738C113.782 73.0684 114.242 72.601 114.462 72.8086C114.675 73.0092 115.619 72.0813 115.499 71.7888C115.333 71.3792 114.774 71.6892 114.917 72.112C115.009 72.3874 114.96 72.4493 114.716 72.3614C114.538 72.2971 114.456 72.1485 114.533 72.0313C114.929 71.4275 112.954 72.9563 110.967 74.7905C109.326 76.3061 109.17 76.4811 108.713 77.313C108.289 78.0854 104.453 81.5833 103.425 82.1358C103.237 82.2366 102.914 82.5221 102.706 82.7705C102.498 83.0189 102.209 83.2222 102.064 83.2222C101.919 83.2222 101.652 83.3761 101.471 83.564C101.29 83.7519 100.599 84.1695 99.9346 84.4917C99.2708 84.8139 98.6807 85.1227 98.6237 85.1778C98.208 85.5797 96.2637 86.8257 96.1137 86.7865C96.0108 86.7595 95.9267 86.8216 95.9267 86.9244C95.9267 87.2093 93.247 88.6172 92.1925 88.8862C91.679 89.0172 91.0722 89.1955 90.844 89.2824C90.6158 89.3695 90.0557 89.497 89.5993 89.566C89.1429 89.6347 88.5361 89.7263 88.2508 89.7695C87.9655 89.8127 86.9853 89.9748 86.0725 90.13C85.1597 90.2853 83.806 90.4734 83.0644 90.5482C82.3227 90.623 81.5292 90.7169 81.301 90.7569C79.4911 91.0753 75.6944 90.6495 73.3138 89.8615C73.0286 89.767 72.4218 89.6431 71.9654 89.5863C69.402 89.2664 69.2628 89.1033 70.7434 88.1544C72.9381 86.7478 75.3361 84.0816 76.5846 81.6598C77.2636 80.3425 78.325 77.4585 78.8073 75.6194C79.1955 74.1396 79.0936 71.9444 78.5302 69.6489C77.7928 66.6453 76.9329 65.5339 74.5667 64.5255C72.4689 63.6317 72.1822 63.5277 70.8511 63.1795L69.5294 62.8338L70.0343 62.4329C70.3121 62.2126 70.8567 61.8124 71.2445 61.5439C72.4222 60.7281 75.8309 57.4426 75.4996 57.4426C75.4488 57.4426 75.6415 57.2221 75.9276 56.9528C76.2139 56.6832 76.3909 56.3756 76.3209 56.2692C76.251 56.1626 76.2859 56.0755 76.3983 56.0755C76.606 56.0755 77.6704 54.1244 77.6704 53.744C77.6704 53.6299 77.7528 53.5366 77.8532 53.5366C78.0499 53.5366 78.5231 52.0427 78.6206 51.1148C78.6534 50.8033 78.7876 50.486 78.9191 50.4094C79.0505 50.333 79.1612 50.1924 79.1652 50.0969C79.1691 50.0016 79.2579 49.7118 79.3625 49.453C79.4668 49.1941 79.528 48.8425 79.4984 48.6718C79.4685 48.5009 79.5174 48.2513 79.6069 48.117C79.6963 47.9828 79.7272 47.8728 79.6753 47.8728C79.6237 47.8728 79.6641 47.5434 79.7652 47.1405C80.0272 46.0976 80.0203 42.3902 79.756 42.1414C79.6031 41.9974 79.5376 42.0158 79.5376 42.2027C79.5376 42.4587 79.2388 42.3142 79.2148 42.0464C79.1552 41.3859 78.7947 40.4846 78.4762 40.1997C78.2613 40.0075 78.0883 39.7439 78.0916 39.6138C78.0951 39.4837 78.191 39.5275 78.3047 39.7109C78.4308 39.9145 78.6436 39.9968 78.8509 39.922C79.0965 39.8331 79.1436 39.8708 79.021 40.0579C78.9102 40.2262 78.9314 40.2698 79.0816 40.1823C79.3359 40.0343 79.187 39.4749 78.893 39.4749C78.7911 39.4749 78.7017 39.5849 78.6947 39.7191C78.6874 39.8534 78.5949 39.7599 78.4889 39.5112C78.3831 39.2626 78.2032 39.1134 78.0895 39.1796C77.9657 39.2517 77.9375 39.1654 78.0192 38.9648C78.1113 38.7388 78.0775 38.6752 77.9155 38.7695C77.7536 38.8636 77.7198 38.8 77.8117 38.5742C77.9142 38.323 77.8746 38.2787 77.6539 38.3974C77.4157 38.5254 77.4088 38.5055 77.6178 38.2934C77.8325 38.0756 77.9281 38.0957 78.1816 38.4113C78.3594 38.6326 78.4899 38.6877 78.4936 38.5431C78.5017 38.2373 76.5462 36.3501 76.2214 36.3501C76.0921 36.3501 76.0529 36.4517 76.1342 36.5757C76.2267 36.7165 76.1911 36.7479 76.0394 36.6597C75.9058 36.5819 75.8477 36.4405 75.9104 36.3452C76.0699 36.1021 75.2467 35.6441 74.1437 35.3621C72.9132 35.0478 72.0158 35.0149 71.5305 35.2666ZM70.9281 36.2394C70.5858 36.3513 70.259 36.4878 70.202 36.5429C70.0812 36.6595 69.5889 36.787 69.2165 36.7981C69.074 36.8024 68.9572 36.911 68.9572 37.0397C68.9572 37.1682 68.5604 37.5272 68.0755 37.8371C67.5907 38.1471 67.0797 38.4887 66.9401 38.5961C66.8007 38.7035 66.3298 39.0519 65.8937 39.3702C65.1363 39.9235 64.8195 40.2844 62.5468 43.1856C61.3531 44.7096 57.7869 49.7075 57.3149 50.5184C56.8332 51.3459 55.9955 53.9393 55.364 56.5581C55.3129 56.7698 55.0816 57.5193 54.8501 58.2238C54.3377 59.7823 54.3536 59.7208 53.7138 62.618C53.4292 63.907 53.1357 65.5077 53.0618 66.1751L52.9272 67.3885L53.9406 66.9168C55.5115 66.1854 56.8929 65.6452 57.1921 65.6452C57.3417 65.6452 57.5898 65.5354 57.7435 65.4011C57.9682 65.2046 57.9925 65.2075 57.8669 65.4155C57.7377 65.63 57.7943 65.63 58.1995 65.4155C58.4682 65.2733 58.7567 65.0691 58.8405 64.9616C58.9244 64.8542 58.9943 64.8345 58.9961 64.9179C58.9978 65.0011 59.2783 64.9335 59.6195 64.7673C59.9606 64.6013 60.2639 64.473 60.2938 64.482C60.3523 64.5 60.8599 64.3531 61.4369 64.151C61.9375 63.9756 62.0953 63.9316 63.0447 63.702C65.0686 63.2123 65.7124 62.8915 67.2667 61.5972C67.683 61.2505 68.0927 60.965 68.177 60.9625C68.2614 60.9599 68.8253 60.5404 69.4302 60.0303C70.7661 58.9034 72.2591 57.7592 72.5097 57.6701C72.6112 57.634 72.6454 57.5305 72.5861 57.44C72.5265 57.3494 72.6427 57.2238 72.8439 57.1609C73.4943 56.9576 75.7156 53.5174 76.0743 52.1581C76.1469 51.8833 76.3664 51.3121 76.562 50.8887C76.7576 50.4653 76.9024 50.0588 76.8838 49.9856C76.8653 49.9124 76.9908 49.5349 77.163 49.147C77.3352 48.7589 77.4211 48.3576 77.3537 48.2549C77.2862 48.1521 77.3066 48.068 77.3989 48.0678C77.4912 48.0676 77.5914 47.7818 77.6217 47.433C77.6983 46.5532 77.7792 46.1429 77.8989 46.0302C78.1013 45.8398 77.8043 41.3975 77.5468 40.7661C77.4763 40.593 77.3298 40.4514 77.2211 40.4514C77.1124 40.4514 77.0829 40.361 77.1555 40.2503C77.3196 40.0005 76.4321 38.5683 75.7071 37.9125C75.4102 37.644 75.0096 37.2704 74.8169 37.0825C74.6241 36.8946 74.3005 36.7407 74.0976 36.7407C73.8947 36.7407 73.7288 36.6587 73.7288 36.5585C73.7288 36.1302 71.9004 35.922 70.9281 36.2394ZM76.2245 37.2475C76.2212 37.3651 76.3894 37.6073 76.5985 37.7854C76.9132 38.0535 76.979 38.0602 76.979 37.8242C76.979 37.6674 76.9068 37.5811 76.8188 37.6323C76.7307 37.6834 76.5624 37.5698 76.4448 37.3795C76.3272 37.1893 76.228 37.1299 76.2245 37.2475ZM77.3246 37.8063C77.3246 37.9627 77.4041 38.0445 77.501 37.9881C77.5978 37.9317 77.6236 37.8037 77.5578 37.7038C77.3902 37.4483 77.3246 37.477 77.3246 37.8063ZM78.604 39.0843C78.6745 39.1917 78.7733 39.2796 78.8237 39.2796C78.8741 39.2796 78.9152 39.1917 78.9152 39.0843C78.9152 38.9769 78.8162 38.889 78.6955 38.889C78.5748 38.889 78.5335 38.9769 78.604 39.0843ZM79.3301 41.3418C79.3301 41.5092 79.4249 41.591 79.5409 41.5236C79.6569 41.4561 79.6982 41.3192 79.6324 41.2192C79.4546 40.9483 79.3301 40.9987 79.3301 41.3418ZM79.3264 42.9903C79.31 43.2589 79.2778 43.7151 79.255 44.0039C79.2229 44.4137 79.2729 44.4832 79.482 44.3199C79.6731 44.1705 79.6873 44.0391 79.5315 43.8624C79.3774 43.6876 79.3801 43.593 79.5401 43.5428C79.6979 43.4934 79.7046 43.3235 79.5618 42.9868L79.3564 42.5021L79.3264 42.9903ZM79.3301 44.9433C79.3301 45.0508 79.4291 45.1386 79.5498 45.1386C79.6705 45.1386 79.7118 45.0508 79.6413 44.9433C79.5708 44.8359 79.472 44.748 79.4216 44.748C79.3712 44.748 79.3301 44.8359 79.3301 44.9433ZM79.0967 47.1893C79.0824 47.243 79.0577 47.3528 79.0417 47.4334C79.0258 47.5141 78.9303 47.7117 78.8297 47.8728C78.6816 48.1103 78.6994 48.1199 78.9241 47.9236C79.1861 47.6947 79.3919 47.0916 79.2081 47.0916C79.161 47.0916 79.111 47.1356 79.0967 47.1893ZM65.919 65.3319C65.3779 65.7048 62.7335 67.0133 62.7335 66.9084C62.7335 66.867 62.1501 67.0799 61.4369 67.381C60.7238 67.6822 60.0469 67.9527 59.9328 67.9822C59.8187 68.0115 59.492 68.1267 59.2067 68.238C58.9215 68.3493 58.5947 68.4524 58.4806 68.4671C58.3665 68.4819 57.713 68.6604 57.0284 68.8637C56.3438 69.0672 55.6903 69.2503 55.5762 69.2704C55.4621 69.2907 54.914 69.4526 54.3582 69.6301C53.8024 69.8078 53.1724 69.9008 52.9579 69.8367C52.7436 69.7727 52.561 69.792 52.5521 69.8799C52.5434 69.9676 52.4954 70.2152 52.4452 70.4301C52.3952 70.6449 52.3434 70.9964 52.3297 71.2113C52.3162 71.4261 52.2303 71.9095 52.1388 72.2854C51.9241 73.1686 51.7204 74.2082 51.6415 74.8243C51.6073 75.0929 51.4783 75.6559 51.3553 76.0754C51.2322 76.4951 51.1733 76.9023 51.2248 76.9804C51.276 77.0586 51.1897 77.5236 51.0331 78.0138C50.8764 78.504 50.7939 78.9481 50.8499 79.0006C50.936 79.0819 50.8181 80.388 50.3997 83.988L50.3221 84.6563L50.9254 84.0486C51.2573 83.7142 51.8094 83.2847 52.1521 83.0941C52.495 82.9035 52.7755 82.6785 52.7755 82.5942C52.7755 82.51 52.9467 82.441 53.1558 82.441C53.3651 82.441 53.6062 82.3752 53.6918 82.2946C53.7773 82.2139 53.9097 82.142 53.9856 82.1344C54.0618 82.127 54.5441 82.0038 55.0575 81.8604C56.8002 81.3741 60.8328 81.7348 61.819 82.4653C61.9437 82.5574 62.107 82.5752 62.1821 82.5045C62.2572 82.4338 62.3186 82.4836 62.3186 82.6153C62.3186 82.7469 62.4013 82.8065 62.5024 82.7477C62.714 82.6246 64.9543 84.3167 66.1061 85.4694C67.9674 87.3323 68.0203 87.3743 68.0907 87.0482C68.1276 86.8773 68.2911 86.7377 68.4537 86.7377C68.6166 86.7377 68.7498 86.6498 68.7498 86.5424C68.7498 86.4349 68.8666 86.3467 69.0091 86.3461C69.2587 86.3453 70.2764 85.5754 71.5224 84.445C72.6599 83.413 73.8777 81.5503 74.6385 79.6783C75.0594 78.6421 75.4374 77.631 75.4782 77.4316C75.5189 77.232 75.6712 76.6736 75.8166 76.1906C76.2938 74.6046 76.3321 74.1904 76.1423 72.676C75.7654 69.6655 74.76 67.149 73.797 66.8043C73.5014 66.6985 73.0151 66.4516 72.7162 66.2555C71.2384 65.286 66.8511 64.69 65.919 65.3319ZM36.75 65.988C36.0942 66.2829 35.5575 66.634 35.5571 66.7682C35.5567 66.9025 35.3642 67.0123 35.1293 67.0123C34.8945 67.0123 34.7522 67.0885 34.8132 67.1814C34.9659 67.414 34.2161 68.0253 34.0024 67.8427C33.9076 67.7619 33.8985 67.8074 33.9819 67.9435C34.0653 68.0798 33.952 68.4753 33.7305 68.8223C33.5087 69.1696 33.2676 69.9604 33.195 70.5799C33.0264 72.0143 32.6376 73.0733 32.0081 73.8131C31.4926 74.4189 30.785 74.7485 30.785 74.3829C30.785 74.2677 30.7236 74.2312 30.6485 74.3019C30.4217 74.5154 29.9551 74.0242 29.9551 73.5721C29.9551 73.3393 30.2819 72.5588 30.6812 71.8378C31.3352 70.6572 31.4073 70.3711 31.4073 68.9587C31.4073 66.4428 30.7366 65.48 29.1535 65.7239C28.7386 65.7878 28.2826 65.8548 28.1399 65.8727C27.9972 65.8909 27.9268 65.9493 27.9835 66.0026C28.0401 66.0559 27.8233 66.2502 27.5015 66.4344C26.8839 66.7879 25.0548 68.9528 24.7444 69.6977C24.6436 69.9393 24.4523 70.3787 24.3193 70.6742C24.1862 70.9697 24.065 71.2552 24.0498 71.3089C23.937 71.7081 23.6407 72.478 23.4111 72.969C22.2041 75.5487 22.0234 79.8322 22.9866 83.0269C23.5791 84.9919 23.6071 85.0663 24.3785 86.7269C24.9089 87.869 27.5146 90.5636 27.8818 90.3499C27.9953 90.2839 28.088 90.3232 28.088 90.4368C28.088 90.8003 28.8834 90.6585 29.1952 90.2394C29.4143 89.9449 29.5257 89.905 29.6054 90.0929C29.6859 90.282 29.7193 90.2708 29.7313 90.0505C29.7402 89.8855 30.1516 89.3478 30.6454 88.8559C31.1391 88.3637 32.0847 87.1367 32.7469 86.1289C33.4091 85.121 34.6425 83.3152 35.4876 82.1163C36.3328 80.9171 37.2641 79.3791 37.557 78.6985C37.8502 78.0177 38.2304 77.1533 38.4024 76.7773C39.1876 75.0595 39.6806 72.2991 39.7953 68.9737C39.8959 66.0641 39.6891 65.4493 38.6111 65.4509C38.2433 65.4515 37.4058 65.6932 36.75 65.988ZM116.88 70.4926C116.203 70.7812 115.635 71.2199 115.635 71.4536C115.635 71.8458 116.143 71.7399 116.796 71.2115C117.127 70.9431 117.305 70.722 117.191 70.7203C117.077 70.7185 117.124 70.6318 117.295 70.5277C117.646 70.3142 117.356 70.2896 116.88 70.4926ZM116.094 71.231C115.947 71.3812 115.918 71.5042 116.03 71.5042C116.245 71.5042 116.557 71.1328 116.434 71.0226C116.394 70.9869 116.241 71.0806 116.094 71.231ZM55.949 84.2218C55.4694 84.3036 54.898 84.4607 54.6796 84.5708C54.4611 84.6808 54.2346 84.7259 54.1761 84.671C54.1178 84.6161 53.5068 85.0805 52.8182 85.7031C51.9673 86.473 51.499 87.0722 51.3557 87.5755C50.8903 89.2086 51.6969 90.7796 53.4873 91.727C54.3437 92.1803 54.7972 92.2815 56.0878 92.3076C56.9473 92.325 58.0885 92.2309 58.6237 92.0983C59.1588 91.9656 59.649 91.9063 59.7129 91.9664C59.7768 92.0266 59.8291 91.9733 59.8291 91.8481C59.8291 91.7227 59.9504 91.6202 60.099 91.6202C60.4929 91.6202 61.4852 91.1583 61.4871 90.9739C61.4879 90.887 61.5715 90.8642 61.6728 90.9229C61.7738 90.9817 61.9711 90.9001 62.1111 90.7413C62.2512 90.5825 62.4484 90.5009 62.5495 90.5597C62.6507 90.6185 62.7335 90.5685 62.7335 90.4484C62.7335 90.3283 62.8275 90.2847 62.9424 90.3515C63.0573 90.4185 63.2071 90.3363 63.2754 90.1689C63.3436 90.0015 63.4828 89.9132 63.5851 89.9728C63.6872 90.0322 63.7708 89.9877 63.7708 89.874C63.7708 89.7603 63.8876 89.6652 64.0301 89.6629C64.1728 89.6605 64.5108 89.4982 64.7815 89.3023C65.2668 88.9508 65.2682 88.9399 64.8852 88.4903C63.6019 86.9841 61.2479 84.9526 60.3799 84.6024C59.3038 84.1681 57.2823 83.9945 55.949 84.2218ZM23.1748 96.1172C23.2258 96.2812 21.59 97.7797 21.4168 97.7276C21.3021 97.693 21.3091 97.9014 21.4409 98.4557C21.4535 98.5094 21.5975 98.3336 21.7606 98.0651C21.9236 97.7965 22.0603 97.6536 22.0645 97.7471C22.0684 97.8409 22.2107 97.809 22.3807 97.6762C22.5506 97.5434 22.6294 97.3434 22.5559 97.2315C22.4767 97.1108 22.5236 97.087 22.6711 97.173C22.8078 97.2524 23.0601 97.2079 23.2316 97.0737C23.4818 96.8784 23.4903 96.7982 23.2744 96.6695C23.0698 96.5472 23.0862 96.508 23.343 96.5056C23.5287 96.504 23.7814 96.3884 23.9044 96.2488C24.0774 96.0525 24.0158 95.9949 23.6325 95.9949C23.3599 95.9949 23.1538 96.05 23.1748 96.1172ZM20.1957 98.4233C19.7941 98.7293 19.7741 98.7988 20.0584 98.9016C20.2853 98.9836 20.3563 98.9363 20.2814 98.7529C20.205 98.5656 20.2922 98.5139 20.5685 98.5818C20.8351 98.6475 20.9654 98.5787 20.9654 98.3723C20.9654 97.9715 20.7712 97.9844 20.1957 98.4233ZM18.8242 99.342C18.4649 99.5982 18.4748 99.6154 18.9864 99.6212C19.6376 99.6287 20.2015 99.1392 19.5916 99.0959C19.3802 99.081 19.035 99.1916 18.8242 99.342ZM17.711 100.12C17.5666 100.284 17.5085 100.475 17.5817 100.544C17.6552 100.613 17.7151 100.561 17.7151 100.43C17.7151 100.298 17.785 100.23 17.8707 100.279C17.9564 100.328 18.1466 100.245 18.2937 100.095C18.5132 99.8718 18.5084 99.8228 18.2674 99.8228C18.1058 99.8228 17.8554 99.9568 17.711 100.12Z" fill="white" stroke="white" stroke-width="2" mask="url(#path-1-inside-1_33_162)"/>
<circle cx="67.5" cy="67.4994" r="63.1251" stroke="white" stroke-width="2"/>
<circle cx="67.5" cy="67.5" r="66" stroke="white" stroke-width="3"/>
</svg>
